<svg xmlns="http://www.w3.org/2000/svg" viewBox="0 0 500 500"><path d="M117.1 362.1l2.2-3.1 104.5-198.3.2-2.1L177.9 72c-3.9-7.3-14.7-5.4-16 2.7l-44.8 287.4z" fill="#ffc24a"/><path d="M257.6 224.1l34.3-35.1-34.3-65.5c-3.3-6.2-12.4-6.2-15.6 0l-18.3 35v3l33.9 62.6z" fill="#f4bd62"/><path fill="#f6820c" d="M117.1 362.1l1-1 3.6-1.5 133.8-133.2 1.6-4.6-33.3-63.6z"/><path d="M261.9 429.3l121-67.5-34.6-212.9c-1.1-6.7-9.3-9.3-14-4.5L117.1 362.1l120.4 67.2c7.5 4.3 16.8 4.3 24.4 0" fill="#fde068"/><path d="M381.9 361.2L347.6 150c-1.1-6.6-7.9-9.3-12.6-4.6L118.4 361.7l119 66.5c7.5 4.2 16.7 4.2 24.3 0l120.2-67z" fill="#fcca3f"/><path d="M261.9 427.3c-7.6 4.2-16.9 4.2-24.5 0L118 361.1l-1 1 120.4 67.2c7.6 4.2 16.9 4.2 24.5 0l121-67.5-.3-1.8-120.7 67.3z" fill="#eeab37"/></svg>