<svg version="1.1" id="Layer_1" xmlns="http://www.w3.org/2000/svg" x="0" y="0" viewBox="0 0 500 500" xml:space="preserve"><style>.st2{fill:#ebebeb}.st3{fill:#fff}</style><g id="XMLID_1_"><path id="XMLID_11_" fill="#e44d26" d="M145.7 401.1l-23.2-260.4h255L354.3 401l-104.5 29z"/><path id="XMLID_10_" fill="#f16529" d="M250 407.9l84.4-23.4L354.3 162H250z"/><path id="XMLID_9_" class="st2" d="M250 258.6h-42.3l-2.9-32.7H250V194h-80.1l.8 8.5 7.8 88H250z"/><path id="XMLID_8_" class="st2" d="M250 341.5l-.1.1-35.6-9.7-2.3-25.4h-32l4.4 50.1 65.5 18.2.1-.1z"/><path id="XMLID_7_" d="M146.2 70h16.2v16h14.8V70h16.2v48.5h-16.2v-16.3h-14.8v16.3h-16.2V70z"/><path id="XMLID_6_" d="M214.8 86.1h-14.3V70h44.8v16.1H231v32.4h-16.2V86.1z"/><path id="XMLID_5_" d="M252.5 70h16.9l10.4 17.1L290.2 70h16.9v48.5H291v-24l-11.2 17.3h-.3l-11.2-17.3v24.1h-15.9V70z"/><path id="XMLID_4_" d="M315.2 70h16.2v32.5h22.8v16h-39V70z"/><path id="XMLID_3_" class="st3" d="M249.9 258.6v31.9h39.3l-3.7 41.4-35.6 9.6v33.3l65.4-18.2.5-5.4 7.5-84 .8-8.6h-8.6z"/><path id="XMLID_2_" class="st3" d="M249.9 194v31.9H327l.7-7.2 1.4-16.2.8-8.5z"/></g></svg>