<svg xmlns="http://www.w3.org/2000/svg" width="57" height="57" viewBox="0 0 56.7 56.7"><path d="M30.1 27.1V27v.1zM49.3 4.7H7.1c-2 0-3.7 1.6-3.7 3.6v42.6c0 2 1.6 3.6 3.7 3.6h42.1c2 0 3.7-1.6 3.7-3.6V8.2c0-1.9-1.6-3.5-3.6-3.5zM18.5 46.3H11V23.8h7.5v22.5zm-3.8-25.5c-2.5 0-4.1-1.7-4.1-3.9s1.7-3.9 4.2-3.9c2.6 0 4.1 1.7 4.2 3.9 0 2.2-1.7 3.9-4.3 3.9zm30.7 25.5h-7.5v-12c0-3-1.1-5.1-3.8-5.1-2.1 0-3.3 1.4-3.8 2.7-.2.5-.2 1.1-.2 1.8v12.5h-7.5s.1-20.4 0-22.5h7.5v3.2c1-1.5 2.8-3.7 6.7-3.7 4.9 0 8.6 3.2 8.6 10.1v13z"/></svg>