<svg xmlns="http://www.w3.org/2000/svg" viewBox="-91 49.2 50 50"><rect x="-71.7" y="72" transform="matrix(0.8613 0.508 -0.508 0.8613 29.0038 41.8064)" width="19.2" height="4.1"/><rect x="-74.6" y="79.3" transform="matrix(0.9657 0.2596 -0.2596 0.9657 18.8887 19.6645)" width="19.2" height="4.1"/><rect x="-75.8" y="86.3" transform="matrix(0.9958 0.0917 -0.0917 0.9958 7.83 6.4478)" width="19.2" height="4.1"/><rect x="-76.2" y="92.5" width="19.2" height="4.1"/><path d="M-53.6 99.9h-25.2v-16.8h-3.3v20h0c0 0 1 0 1 0h30.8v0c0 0 0-1 0-1V83.1h-3.3V99.9z"/><rect x="-65.4" y="65.4" transform="matrix(-0.5634 -0.8262 0.8262 -0.5634 -143.0016 59.4012)" width="19.2" height="4.1"/><rect x="-49.6" y="54.6" transform="matrix(0.9853 -0.171 0.171 0.9853 -11.6767 -7.1886)" width="4.1" height="19.2"/></svg>
